# xmcd CD database file
#
# Track frame offsets:
#	150
#	18521
#	36325
#	54113
#	70634
#	91413
#	108888
#	131590
#	147631
#	168499
#	189774
#	209094
#	233490
#	259420
#
# Disc length: 3715 seconds
#
# Revision: 2
# Processed by: cddbd v1.5.2PL0 Copyright (c) Steve Scherf et al.
# Submitted via: CDex 1.70beta3
#
DISCID=c20e810e
DTITLE=EVANESCENCE - Anywhere But Home
DYEAR=2004
DGENRE=Hard Rock
TTITLE0=Haunted (LIVE)
TTITLE1=Going Under (LIVE)
TTITLE2=Taking Over Me (LIVE)
TTITLE3=Everybody's Fool (LIVE)
TTITLE4=Thoughtless (LIVE)
TTITLE5=My Last Breath (LIVE)
TTITLE6=Farther Away (LIVE)
TTITLE7=Breathe No More (LIVE)
TTITLE8=My Immortal (LIVE)
TTITLE9=Bring Me To Life (LIVE)
TTITLE10=Tourniquet (LIVE)
TTITLE11=Imaginary (LIVE)
TTITLE12=Whisper (LIVE)
TTITLE13=Missing (LIVE)
EXTD=YEAR: 2004
EXTT0=
EXTT1=
EXTT2=
EXTT3=
EXTT4=
EXTT5=
EXTT6=
EXTT7=
EXTT8=
EXTT9=
EXTT10=
EXTT11=
EXTT12=
EXTT13=
PLAYORDER=
